<svg viewBox="0 0 366 357" version="1.1" xmlns="http://www.w3.org/2000/svg" xmlns:xlink="http://www.w3.org/1999/xlink">
	<g id="页面-1" stroke="none" stroke-width="1" fill="none" fill-rule="evenodd">
		<path d="M152.982704,3.02424948 C158.60263,-0.0837983485 164.472855,0.0208781707 170.623493,0.607563061 C177.352815,1.24944732 184.151368,1.51898423 190.910991,1.41018711 C199.956662,1.2645954 208.891925,1.50639291 217.774221,3.54889584 C222.117625,4.54767147 226.660727,4.68757232 231.117767,5.17707204 C231.342138,5.20171368 231.607652,4.85377274 231.886866,4.65606373 C231.833457,4.60681014 231.780472,4.5579466 231.727737,4.50931427 C231.779645,4.46354401 231.833,4.41973746 231.886866,4.38153157 L231.711825,4.21983571 L231.365455,3.89987224 C230.792636,3.37072238 230.202466,2.82554056 229.371127,2.05758299 C234.824554,1.68099727 239.614898,0.612213765 244.299357,3.06964737 C245.116645,3.49839086 246.298184,3.320813 247.307054,3.28831007 C252.404526,3.1240805 257.505074,2.7302249 262.593842,2.85404964 C263.842179,2.8844249 265.652631,4.33561413 266.093256,5.53840262 C266.127324,5.63139262 266.148374,5.72912445 266.1581,5.83099027 C266.080888,6.83069812 265.16751,8.13695267 264.737741,9.27527947 L264.840035,9.28797042 C264.803665,9.37329192 264.769391,9.4578932 264.737741,9.54158523 C267.616182,9.96597148 269.574127,7.7621514 271.546449,5.76816265 C273.865174,3.42397699 276.59392,2.38525912 279.858318,2.48603671 C293.585115,2.90980712 305.636694,7.97424224 316.85615,15.5204088 C321.17054,18.422257 325.7975,20.8621445 330.111606,23.7643583 C330.741554,24.1881447 331.378317,24.608548 332.016873,25.0296107 L333.294885,25.8738132 C336.275546,27.8512601 339.22232,29.9017587 341.62474,32.4361439 C349.214218,40.4425854 353.799728,50.4267984 358.286742,60.3547728 C358.523568,60.878787 358.645999,61.5797548 358.654325,62.3010767 C358.638793,63.3699671 358.37562,64.4548069 357.865489,65.0535718 C356.499451,66.6569422 355.947419,68.1936209 355.969114,69.7211677 C355.94799,71.346942 356.587612,72.9593057 357.597532,74.628425 C357.665617,74.7409557 357.946685,74.72537 358.219246,74.7915192 C358.584063,73.9666235 358.954182,73.1297046 359.536955,71.8119099 C359.930242,72.850806 360.135633,73.2610078 360.242484,73.695311 C361.627137,79.3224513 363.005624,84.9510977 364.383333,90.45586 L366,97.0664912 C366,101.365493 366,105.664494 365.748775,110.396205 C364.501027,111.483336 363.481162,112.721663 362.512214,112.68314 C360.134978,112.588624 359.306772,113.410941 359.355971,115.040299 C359.341137,115.501829 359.408564,116.035821 359.540097,116.639833 C359.991718,118.713662 360.373551,120.805587 360.698882,122.90296 C360.971988,124.663556 361.656749,126.585657 361.687328,128.292071 C361.678236,128.757509 361.615786,129.205116 361.477579,129.627068 C360.731733,131.904143 360.430796,134.115717 360.434185,136.290453 C360.399522,140.689585 361.630508,144.933727 362.962111,149.260483 C363.488194,150.969925 363.626832,152.839992 363.627289,154.697302 C363.623762,155.371765 363.60358,156.04381 363.578218,156.705117 C363.406139,161.19329 362.671029,165.665286 362.599322,170.150878 C362.531099,174.41819 362.500317,178.686373 362.493845,182.954822 L362.493845,183.090282 C362.485216,188.770989 362.519805,194.452168 362.56649,200.132388 C362.614135,205.931986 362.621486,211.753855 363.136633,217.522244 C363.336768,219.763235 363.455076,221.990943 363.46343,224.222191 C363.47862,229.447534 362.891496,234.693041 361.343022,240.17399 C360.326583,235.821235 359.436627,232.010069 358.54665,228.198924 L357.494869,228.473335 C357.133756,229.869038 356.942403,231.211951 356.933668,232.502093 L356.933668,232.545637 C356.908922,236.194259 358.350198,239.420032 361.549963,242.223381 C363.671979,244.082511 364.644231,245.582503 364.666825,247.251844 C364.680571,248.622178 364.057596,250.10769 362.908008,251.998973 C362.082321,253.357368 362.048246,255.326249 362.0465,257.016273 C362.045066,258.418625 362.783028,259.884374 362.806795,261.240387 L362.798484,261.547273 L362.76058,261.853586 C361.300025,270.07783 359.719484,278.28685 357.907527,286.440912 C356.762856,291.591923 355.283299,296.683646 353.646279,301.702208 C353.161762,303.187466 351.865823,305.092428 350.537599,305.501803 C345.119791,307.17151 343.959785,311.669866 342.122369,316.43038 C342.139524,316.424169 342.156642,316.417971 342.173725,316.411787 C342.155823,316.455777 342.139124,316.499247 342.122369,316.542739 C344.093754,315.827659 345.58209,315.287824 347.530589,314.581072 C347.304706,315.780075 347.237313,316.33217 347.089429,316.861938 C344.926464,324.611497 340.170074,330.742458 334.88955,336.60106 C332.796241,338.923574 330.902717,340.191259 327.572415,338.861983 C324.499533,337.63549 322.92316,339.220226 322.291847,342.475387 C321.979997,344.08348 320.833799,345.736116 319.618055,346.907431 C318.380145,348.100104 316.650868,348.854434 315.036231,349.577663 C309.290735,352.151243 309.274526,352.115293 305.941738,348.243537 C301.195928,350.562071 296.814259,353.699376 291.968471,354.793354 C286.994081,355.916345 281.566085,355.042397 276.33663,355.042397 C276.204102,354.727042 276.071574,354.411709 275.939046,354.096354 L276.008,354.259898 L276.587717,354.11313 C278.317511,353.671575 280.047197,353.229717 281.772962,352.779208 L283.06649,352.439573 C300.086701,347.942915 316.631527,342.39893 329.028389,327.765995 C329.768997,330.077356 330.165817,331.315802 330.54608,332.502564 C331.944571,329.94368 333.312434,327.474152 334.648404,324.987565 C335.396906,323.594437 335.927811,322.200419 335.952156,320.739858 L335.952156,320.619714 C335.97522,319.238592 335.543643,317.797859 334.411729,316.241798 C333.317452,317.28023 332.349006,318.047457 331.562127,318.968794 C320.562417,331.848354 307.347603,341.308377 290.444367,344.665126 C281.976409,346.346752 273.276838,346.90282 264.842476,348.711633 C247.022299,352.53328 229.027818,352.309203 210.9942,351.903331 C205.878032,351.788172 200.628747,349.915419 195.818256,353.408945 C195.117832,353.917624 193.790044,353.65029 192.758071,353.608162 C191.727696,353.56609 190.696754,353.502408 189.665765,353.433002 L187.60388,353.291262 C185.198634,353.127975 182.795023,352.99117 180.39966,353.082628 C178.155059,353.168318 175.922628,353.436875 173.690037,353.714079 L172.350365,353.880045 C168.107383,354.400063 163.854922,354.825508 159.508412,353.961404 C155.58445,353.181324 151.469769,352.575886 147.516062,352.875429 C137.349718,353.645635 127.230582,355.020627 117.076966,355.991616 C115.840508,356.109864 113.988214,355.619606 113.332229,354.73783 C112.080151,353.054834 111.02477,353.165186 109.429635,353.919233 C102.135482,357.367348 94.6103602,357.496752 86.8782378,355.551837 C67.5020956,350.677991 50.170014,341.757312 34.4608851,329.552721 C28.0904357,324.603429 23.8227113,318.176904 21.0527925,310.700203 C20.449718,309.072352 20.0037548,307.384224 19.5864841,305.684923 L19.3609556,304.757219 L19.1364869,303.82907 C18.1218159,299.654054 16.9986665,295.51931 13.867963,292.151015 C13.5859457,291.847599 13.63904,291.249795 13.493708,290.802686 C11.8014387,285.596639 11.2815173,280.353804 11.3373504,275.091413 C11.3913203,270.252771 11.9288194,265.397248 12.4889429,260.538603 C12.7003613,258.704725 12.8510288,256.876003 12.8891815,255.046191 C12.9008379,254.48873 12.9019787,253.931404 12.8911748,253.373798 C12.8164979,249.507617 12.171149,245.632934 10.4696895,241.686324 C9.23109069,245.631465 8.25704421,249.395391 8.14176261,253.123539 C8.12192079,253.764622 8.1274037,254.404865 8.16142408,255.044788 C8.27103445,257.106622 8.67593233,259.165742 9.47742918,261.246334 C9.87132644,262.268842 10.0875384,263.228647 10.1036368,264.119617 L10.1037892,264.308513 C10.0695867,266.336307 8.96050262,267.995704 6.50090415,269.211517 C5.95710039,269.480321 5.45534202,270.634365 5.44127285,271.439407 L5.44127285,271.468148 C5.43863489,271.619374 5.45314224,271.758307 5.48773252,271.876797 C6.03607557,273.755202 6.64350508,275.617982 7.26187378,277.477483 L8.19161283,280.265819 C9.11751947,283.054782 10.0138737,285.850257 10.7181785,288.693914 C16.2149416,310.887238 26.4992578,330.002119 45.3080386,343.832784 C46.2565898,344.530316 47.397366,345.266917 47.8464501,346.257622 C48.0259478,346.653624 48.0826379,347.105153 48.0875247,347.580105 C48.0783964,348.236199 47.9883092,348.928959 47.9991737,349.576162 C47.0390499,349.507002 45.8357341,349.787733 45.154568,349.317179 C30.1165345,338.929273 17.0093582,326.307173 10.9905976,308.950048 C5.29281863,292.518567 2.05225566,275.483066 2.29217105,257.779899 C2.30305029,256.980554 2.32094643,256.180085 2.34600164,255.378253 C2.37512851,254.449141 2.4138822,253.517935 2.46243585,252.584885 C2.82327149,245.65077 2.9459114,238.704127 2.94304527,231.751041 C2.93848839,218.019687 2.44526515,204.262816 2.32659695,190.527508 C2.27838074,184.946744 2.01813544,179.366764 1.79603849,173.788756 C1.56908268,168.08872 1.39154882,162.394151 1.39977602,156.705121 C1.4188472,148.020473 1.87558488,139.348439 3.25813772,130.6896 C3.55278633,128.844234 3.70349776,127.001984 3.69019297,125.182599 C3.69511353,120.393648 2.58438854,115.707684 0,111.346163 L0.000926626139,110.731975 C0.00555975684,109.701069 0.033358541,108.615719 0.200151246,107.203716 C0.471463189,106.028609 0.84688067,104.853244 1.21661491,103.704348 C1.87904973,101.729529 2.52324822,99.7798146 2.51776925,98.0531645 C2.52555331,97.4174826 2.4495692,96.8129563 2.25871181,96.2470815 C1.44134931,93.823673 1.13112947,91.5235443 1.14367994,89.2550877 C1.17193781,86.796684 1.57565943,84.3734452 2.11969257,81.8682295 L2.42920752,80.4448806 C4.18794793,72.3831788 6.08118861,64.4048489 10.7874261,57.3442971 C14.9789239,51.055993 19.0314646,44.6643095 22.8630943,38.1531429 C25.0799813,34.3859365 27.3899274,31.0671144 31.6784087,29.3062122 C33.4280453,28.5877843 34.6871339,26.70282 36.1984165,25.3815726 C39.3908701,22.5905544 42.5431287,19.7470098 45.8613233,17.1121369 C46.4523218,16.6428424 48.2808421,16.6773568 48.6564196,17.1605199 C50.0995731,19.0170986 51.4305037,18.439225 52.7469307,17.754554 L53.0100517,17.6168855 L53.2729596,17.4805071 C53.492009,17.3685454 53.7110175,17.2622381 53.9304374,17.1723614 C57.4990661,15.7106108 60.9456438,13.8681128 64.6199185,12.7758841 C67.2331785,11.9990585 69.0963465,11.0606443 69.9451255,8.32369714 C70.2665851,7.28715112 71.1787807,6.05678646 72.135158,5.65312867 C72.7031234,5.41340794 73.2729949,5.16976189 73.8448657,4.92594311 L74.704183,4.56055448 C80.0126962,2.31231099 85.4962541,0.209829774 91.2285417,1.22311853 C99.3877032,2.66540367 107.307497,2.36938401 115.256371,0.737224064 C118.481425,0.0750154957 121.313836,-0.110396574 123.854479,2.35120946 C124.289236,2.77244592 125.09722,2.94264647 125.749399,2.98722823 C129.719958,3.25865258 133.715529,3.2826463 137.664098,3.72910032 C142.835382,4.31380224 148.059252,5.74711558 152.982704,3.02424948 Z M225.992023,138.8881 C226.028075,139.463276 226.066247,140.037999 226.106034,140.612303 C226.522227,146.685056 227.121829,152.710645 227.315316,158.730309 C227.349084,159.806375 227.369371,160.882251 227.37304,161.958184 C227.511371,202.526019 227.437636,243.094573 227.437395,283.662865 L227.437395,287.586681 L227.441,287.585898 L227.441626,288 L267.254013,288 L267.254,287.585898 L267.353242,287.586681 L267.353242,283.470773 C267.353242,262.413334 267.339651,241.35585 267.362666,220.298432 C267.368535,214.94654 267.262425,209.580072 267.607565,204.246069 C267.812101,201.085188 268.579204,198.119356 269.815255,195.449989 C272.788929,189.174121 278.355504,184.570538 285.285885,182.9772 C294.08926,180.953239 302.931779,180.954985 311.802041,182.52761 C313.010935,182.741925 314.246071,182.807294 315.587324,182.954646 C315.595031,182.880778 315.602736,182.806921 315.61044,182.733076 C315.676067,182.739126 315.743975,182.746372 315.812157,182.753828 C317.317413,168.392316 318.775525,154.480639 320.2363,140.54348 C310.066814,140.54348 300.196678,140.403202 290.332891,140.592234 C283.632888,140.720625 277.040457,141.688505 270.796569,145.781982 C268.943403,147.770461 267.090237,149.758941 264.952403,152.052871 L264.952403,141.512341 C258.057481,141.512341 251.394391,141.869083 244.787801,141.411785 C238.210794,140.956524 231.690506,139.684011 225.992023,138.8881 Z M116.127735,68.9994165 L50.3367219,69 L46,69 C46.0139502,69.0333552 46.0278445,69.0667084 46.0416832,69.1000594 L45.3357166,69.099937 C49.3468676,78.6900277 48.7515787,88.1068891 47.6432846,97.5123171 L47.4893582,98.7948198 C47.4372458,99.2223072 47.3844578,99.6497862 47.3313788,100.077272 L47.1716531,101.359765 C47.1450148,101.573522 47.1183998,101.787285 47.0918562,102.001055 L46.9338357,103.283779 C46.4646513,107.13231 46.0497382,110.984466 45.9693477,114.851325 L139.587247,114.851325 C120.010874,172.512702 100.548299,229.838899 80.9443184,287.581582 L128.295398,287.581582 L128.491,286.999898 L128.771033,287 C129.492128,284.862901 130.118074,283.019207 130.72795,281.202618 L130.930756,280.597727 C152.458723,216.297476 174.029091,152.011312 195.476079,87.6840913 C199.693553,75.0343629 195.151575,69.004976 181.918752,69.0032149 C138.058073,68.9973724 94.197395,69 50.3367219,69 Z M10.5881061,195 C10.5366705,195.303652 10.4879017,195.591559 10.4414137,195.866477 C10.3814357,195.69833 10.3190022,195.530368 10.2554987,195.362367 C9.84183293,197.669763 9.59187995,199.063957 9.30753155,201.070816 C8.34571857,210.522208 8.10291618,219.964908 10.0471568,229.328883 C10.7349408,232.641407 11.741305,235.887931 12.6022242,239.164569 C12.9110746,239.081684 13.2199243,238.998776 13.5287761,238.91589 L13.525,238.797898 L13.6948113,238.750199 C13.6230201,235.935512 13.6642938,233.111767 13.7367689,230.278524 L13.7789031,228.732174 L13.8242739,227.183925 C14.1386405,216.597695 14.4729159,205.877302 10.5881061,195 Z M8.69304543,133.619378 C8.6692509,133.751842 8.64545639,133.884307 8.62166263,134.017176 L8.42111803,134 C8.14873129,135.546301 7.87634597,137.092613 7.6045314,138.956463 C7.96870847,142.393125 8.33231268,145.51225 8.69591758,148.631374 L8.652,148.257898 L8.50974626,148.303412 C8.35583397,148.352022 8.20192168,148.400634 8.04800974,148.449245 C7.14533937,146.608452 6.24266756,144.767669 5.33999719,142.926886 L4.21340058,143.264061 L4.299,143.614898 L4,143.706489 C4.72679478,146.790294 5.52955129,149.858472 6.19641428,152.954591 L6.5175405,154.50518 C7.41017626,159.009298 8.50461869,163.527911 8.78441463,168.086576 C9.0745455,172.813632 8.36693036,177.59585 8.35925024,182.354396 C8.35621304,184.235635 9.06427971,186.118103 9.44856154,188 C9.51605932,187.621214 9.58095017,187.242545 9.64330923,186.863991 C9.67521261,187.001252 9.70553375,187.138395 9.73409025,187.275536 C12.1214649,174.137238 11.2901561,161.140617 10.4777893,148.163698 L10.3393161,145.939254 C10.0880038,141.861376 9.85683665,137.784756 9.74632266,133.705608 C9.39523001,133.676868 9.04413807,133.648118 8.69304543,133.619378 Z M246.216878,20.319365 L246.205,20.8068975 L246.041658,20.8390727 C246.034712,21.1195554 246.02777,21.4000381 246.020829,21.6805206 L246,22.5219681 L254.906387,22.5222461 C265.305614,22.5232191 275.749153,22.5275974 286.392106,22.5473002 C289.452274,23.0484204 292.1828,23.5242112 294.913348,24 C294.942232,23.7095095 294.971116,23.4190191 295,23.128528 C294.949343,23.1155755 294.898686,23.1026488 294.848026,23.0897479 L294.878479,22.7689199 C278.814303,18.3474208 262.628441,16.7312218 246.216878,20.319365 Z M113.924613,4.21766545 C113.022298,3.68327869 111.70748,4.23710625 110.358458,4.75984932 C108.133994,5.32954621 106.218766,6.12833557 104.250857,6.30689917 C97.5338182,6.91638663 90.7981379,7.3057929 84.0698072,7.78276025 C79.3472355,8.11753889 74.817689,8.89070491 72,13.8501089 C73.8264333,14.1714159 75.5086298,13.9327434 77.15761,13.5436588 C79.4997624,12.9910179 81.8267313,12.3083394 84.1594127,11.6852159 C86.8165454,10.9941059 89.4800572,10.3675122 92.1806263,10.0754473 C95.384274,9.72897472 98.6108534,9.60136058 101.843787,9.52673645 C102.751294,9.50605613 103.659736,9.4892243 104.568268,9.47245401 C107.073444,9.42786827 109.579361,9.38684805 112.078602,9.27268128 C113.99957,9.1849327 115.800684,8.33830164 115.247874,5.9815617 C115.010478,4.96946803 114.581048,4.46506116 114.012873,4.27305479 Z M209,7.06713449 C193.877588,5.92871122 179.613504,4.84889768 165.208309,8.63724928 C163.953562,9.43224922 162.976781,10.0984375 162,10.764628 C163.067031,11.1889733 164.117057,11.912179 165.204327,11.9810632 C165.951271,12.0283881 166.688041,11.9839597 167.416334,11.8817907 C169.794268,11.5970749 172.079902,10.6982008 174.332901,10.3173914 C180.184954,9.32825063 186.369548,10.3783413 192.418778,10.4537708 C197.80443,10.5209274 203.157403,10.2302682 208.839481,7.33659906 L208.528,7.31389751 Z" id="形状结合" fill="#343434" fill-rule="nonzero">
		</path>
	</g>
</svg>
